<?xml version="1.0" encoding="UTF-8" standalone="no"?>
<!-- Created with Inkscape (http://www.inkscape.org/) -->

<svg
   xmlns:dc="http://purl.org/dc/elements/1.1/"
   xmlns:cc="http://creativecommons.org/ns#"
   xmlns:rdf="http://www.w3.org/1999/02/22-rdf-syntax-ns#"
   xmlns:svg="http://www.w3.org/2000/svg"
   xmlns="http://www.w3.org/2000/svg"
   xmlns:sodipodi="http://sodipodi.sourceforge.net/DTD/sodipodi-0.dtd"
   xmlns:inkscape="http://www.inkscape.org/namespaces/inkscape"
   width="410"
   height="360"
   viewBox="0 0 108.47917 95.249999"
   version="1.1"
   id="svg8"
   inkscape:version="0.92.3 (2405546, 2018-03-11)"
   sodipodi:docname="walters.svg">
  <defs
     id="defs2" />
  <sodipodi:namedview
     id="base"
     pagecolor="#ffffff"
     bordercolor="#666666"
     borderopacity="1.0"
     inkscape:pageopacity="0.0"
     inkscape:pageshadow="2"
     inkscape:zoom="1.4"
     inkscape:cx="425.55954"
     inkscape:cy="104.19594"
     inkscape:document-units="mm"
     inkscape:current-layer="layer2"
     showgrid="false"
     inkscape:pagecheckerboard="true"
     fit-margin-top="0"
     fit-margin-left="0"
     fit-margin-right="0"
     fit-margin-bottom="0"
     units="px"
     inkscape:window-width="1853"
     inkscape:window-height="1025"
     inkscape:window-x="67"
     inkscape:window-y="27"
     inkscape:window-maximized="1" />
  <metadata
     id="metadata5">
    <rdf:RDF>
      <cc:Work
         rdf:about="">
        <dc:format>image/svg+xml</dc:format>
        <dc:type
           rdf:resource="http://purl.org/dc/dcmitype/StillImage" />
        <dc:title></dc:title>
      </cc:Work>
    </rdf:RDF>
  </metadata>
  <g
     inkscape:groupmode="layer"
     id="layer2"
     inkscape:label="bg-img"
     transform="translate(-57.301193,-70.274537)">
    <path
       style="fill:#f1c40f;fill-opacity:1;stroke-width:0.26458332"
       d="m 109.12173,163.4853 c -1.09148,-0.39009 -1.44624,-2.29374 -0.57448,-3.08267 0.88493,-0.80086 3.37746,-0.27598 2.83759,0.59754 -0.14959,0.24205 -0.32116,0.21139 -0.69122,-0.12351 -1.05951,-0.95884 -2.74037,0.5125 -1.83362,1.60506 0.36552,0.44044 1.58464,0.53957 1.58464,0.12886 0,-0.14552 -0.11906,-0.26459 -0.26458,-0.26459 -0.14552,0 -0.26458,-0.11906 -0.26458,-0.26458 0,-0.14552 0.41672,-0.26458 0.92604,-0.26458 1.09217,0 1.16455,0.3147 0.27661,1.20265 -0.63055,0.63055 -1.17803,0.75829 -1.9964,0.46582 z m 5.1871,-0.23642 c -0.088,-0.22935 -0.16002,-0.94304 -0.16002,-1.58598 0,-1.07053 -0.0557,-1.16899 -0.66146,-1.16899 -1.017,0 -0.78394,-0.43968 0.33073,-0.62393 1.39203,-0.23009 1.91823,-0.20898 1.91823,0.0769 0,0.13572 -0.23822,0.32237 -0.52937,0.41478 -0.47118,0.14954 -0.51126,0.32213 -0.36463,1.56978 0.16013,1.36248 -0.18712,2.22001 -0.53348,1.31741 z m -9.02356,-0.87497 c -0.87889,-1.18892 -1.19062,-1.34044 -1.19062,-0.57872 0,0.71343 -0.27387,1.34455 -0.58346,1.34455 -0.25118,0 -0.0385,-3.14508 0.23218,-3.43338 0.0651,-0.0694 0.51658,0.34737 1.00325,0.92604 l 0.88486,1.05214 0.18707,-0.99219 c 0.10289,-0.5457 0.29288,-0.99219 0.42221,-0.99219 0.27369,0 0.28375,1.28195 0.0215,2.73364 l -0.18319,1.01386 -0.79375,-1.07375 z m 13.35147,0.55159 c -1.32578,-0.40912 -1.77593,-2.19515 -0.78035,-3.09614 1.1606,-1.05033 3.17159,-0.2283 3.17159,1.29645 0,1.20015 -1.26031,2.14869 -2.39124,1.79969 z m 1.49752,-1.25324 c 0.30419,-0.46062 0.2966,-0.62846 -0.0508,-1.12447 -0.50697,-0.72381 -1.5863,-0.76313 -1.95657,-0.0713 -0.37411,0.69904 -0.34574,0.96608 0.15597,1.46778 0.54802,0.54802 1.39176,0.42405 1.85143,-0.27204 z m -19.21461,0.42217 c 0,-0.95652 0.57094,-3.18802 0.81567,-3.18802 0.32009,0 0.30649,0.73469 -0.0439,2.36823 -0.28148,1.31251 -0.77183,1.83333 -0.77183,0.81979 z m -2.452557,0.0921 c -0.08772,-0.0877 -0.04963,-0.44847 0.08465,-0.80165 0.210116,-0.55264 0.15004,-0.67793 -0.43099,-0.89884 -0.902806,-0.34324 -0.882833,-0.35015 -1.169855,0.40478 -0.213678,0.56201 -0.79375,0.94581 -0.79375,0.52517 0,-0.75238 0.956834,-3.3033 1.239043,-3.3033 0.25426,0 0.308179,0.20064 0.185394,0.68986 -0.114615,0.45667 -0.04924,0.76832 0.193397,0.92199 0.667737,0.42288 1.231942,0.25328 1.401231,-0.42122 0.167351,-0.66678 0.685101,-0.92984 0.685101,-0.34809 0,0.59716 -0.86434,3.39079 -1.049102,3.39079 -0.102092,0 -0.257394,-0.0718 -0.345117,-0.15949 z m 24.300437,-1.26689 c -0.59014,-2.03003 -0.55977,-2.09698 0.66734,-1.47095 0.59618,0.30415 1.14573,0.49124 1.22122,0.41576 0.0755,-0.0755 0.0115,-0.49788 -0.14213,-0.93866 -0.18657,-0.53518 -0.19088,-0.85609 -0.013,-0.96604 0.34232,-0.21157 0.34082,-0.21389 0.85431,1.32455 0.65823,1.97213 0.60497,2.10076 -0.61259,1.4796 -1.3766,-0.70228 -1.42128,-0.68873 -1.2225,0.37087 0.28032,1.4942 -0.30432,1.3271 -0.75266,-0.21513 z m 5.00222,0.0874 c -0.0965,-0.30412 -0.11302,-0.61543 -0.0367,-0.6918 0.22075,-0.22074 0.70322,0.17418 0.70322,0.57561 0,0.61804 -0.48069,0.70184 -0.66656,0.11619 z m -34.702244,-0.44409 c -0.614559,-0.10747 -1.316877,-0.77774 -1.071767,-1.02285 0.08103,-0.081 0.387829,-0.0186 0.681768,0.13868 1.359739,0.72771 1.904558,-0.0654 0.56755,-0.82615 -1.682086,-0.95715 -0.412732,-2.56435 1.318315,-1.66919 0.633029,0.32735 0.782765,0.52321 0.565841,0.74013 -0.216924,0.21692 -0.379002,0.21097 -0.612484,-0.0225 -0.417065,-0.41706 -1.270458,-0.40816 -1.268328,0.0132 7.94e-4,0.1819 0.36693,0.53862 0.813353,0.7927 0.488365,0.27795 0.777526,0.63423 0.725932,0.89443 -0.115689,0.58347 -1.013238,1.08518 -1.72018,0.96154 z m -3.856734,-1.93938 c -0.569928,-0.65096 -0.869,-0.79704 -1.372849,-0.67059 -0.354298,0.0889 -0.709707,0.0557 -0.789794,-0.0739 -0.16229,-0.26259 2.692482,-2.56689 2.910271,-2.3491 0.07579,0.0758 0.102526,0.99011 0.05942,2.03184 l -0.07838,1.89404 z m 0.06721,-1.60158 c 0,-0.46732 -0.06611,-0.50669 -0.393962,-0.2346 -0.398195,0.33047 -0.313386,0.79616 0.144994,0.79616 0.136933,0 0.248968,-0.2527 0.248968,-0.56156 z m 42.215448,0.59171 c -0.40939,-0.85655 -0.66441,-1.68671 -0.56671,-1.8448 0.0977,-0.15808 0.6435,-0.427 1.21288,-0.59759 0.87439,-0.26198 1.1392,-0.24203 1.70448,0.12834 0.76411,0.50067 1.14498,1.63572 0.75793,2.25871 -0.26861,0.43235 -1.8696,1.61269 -2.18742,1.61269 -0.0972,0 -0.51177,-0.70081 -0.92116,-1.55735 z m 2.4533,-0.53805 c 0.16161,-1.08335 -1.03673,-1.73997 -2.02838,-1.11144 -0.28677,0.18177 -0.24578,0.43758 0.21476,1.34031 0.5402,1.05888 0.59864,1.09619 1.14816,0.73317 0.31845,-0.21036 0.61791,-0.64329 0.66546,-0.96204 z m -48.858189,-1.4223 c 0.130863,-1.12094 -0.141618,-1.22921 -1.019027,-0.40493 -0.724469,0.68061 -0.757081,0.49815 -0.309397,-1.73103 0.343048,-1.70816 0.9431,-1.91574 0.793416,-0.27447 -0.09182,1.00677 -0.08107,1.02143 0.417709,0.57032 0.717694,-0.6491 0.867157,-0.58415 0.867157,0.37685 v 0.83987 l 0.612365,-0.57529 c 0.631232,-0.59301 1.239718,-0.7576 1.239718,-0.33534 0,0.13197 -0.611185,0.75166 -1.358188,1.37709 l -1.358187,1.13714 z m 51.682149,0.29112 c -0.73701,-0.41793 -0.91732,-0.74908 -0.92199,-1.69335 -0.005,-0.98338 0.69624,-1.69465 1.67043,-1.69465 0.94673,0 0.90161,0.42405 -0.0657,0.61751 -0.88774,0.17755 -1.24976,0.95145 -0.82038,1.75375 0.38485,0.7191 1.45404,0.6945 1.97227,-0.0454 0.30477,-0.43513 0.48597,-0.50798 0.70893,-0.28503 0.22295,0.22296 0.12521,0.4738 -0.3824,0.98141 -0.73675,0.73676 -1.32988,0.83714 -2.16116,0.36574 z m -35.22133,-2.44929 c -0.0811,-0.21131 -0.0703,-0.50897 0.0239,-0.66146 0.11459,-0.1854 3.49711,-0.27725 10.2099,-0.27725 h 10.03855 v 0.66146 0.66146 h -10.06247 c -8.55286,0 -10.08459,-0.0576 -10.2099,-0.38421 z m -23.383881,-1.19767 c 0,-0.1147 0.262691,-0.27724 0.583758,-0.36121 0.965507,-0.25248 0.294098,-0.53663 -1.115972,-0.47229 -1.340356,0.0612 -1.879841,-0.38995 -0.650185,-0.54367 1.213043,-0.15165 0.812625,-0.61133 -0.603538,-0.69286 -1.482529,-0.0854 -1.95547,-0.58149 -0.554306,-0.58149 0.817998,0 0.825143,-0.0106 0.355868,-0.52916 -0.320714,-0.35439 -0.814908,-0.52917 -1.496216,-0.52917 -1.153231,0 -1.391379,-0.45001 -0.305741,-0.57774 0.678857,-0.0799 0.690156,-0.10501 0.245684,-0.54674 -0.285099,-0.28334 -0.869271,-0.46302 -1.505334,-0.46302 -0.571689,0 -1.039435,-0.11906 -1.039435,-0.26458 0,-0.14552 0.297657,-0.26459 0.661459,-0.26459 0.363802,0 0.661458,-0.11231 0.661458,-0.24958 0,-0.42707 -1.141203,-1.07333 -1.89534,-1.07333 -0.395595,0 -0.792848,-0.11907 -0.882785,-0.26459 -0.09556,-0.15461 0.176744,-0.26458 0.655153,-0.26458 0.735758,0 0.790088,-0.0534 0.536431,-0.52737 -0.17742,-0.33152 -0.674376,-0.59008 -1.33809,-0.69622 -1.291911,-0.20658 -1.643988,-0.62849 -0.524468,-0.62849 0.799737,0 0.807448,-0.0122 0.399793,-0.6344 -0.244683,-0.37343 -0.787561,-0.70416 -1.319735,-0.80399 -1.101186,-0.20659 -1.477666,-0.67828 -0.541366,-0.67828 0.75406,0 0.794745,-0.0795 0.409275,-0.79976 -0.147289,-0.27521 -0.684386,-0.57854 -1.193547,-0.67406 -1.188496,-0.22296 -1.577528,-0.76059 -0.428321,-0.59192 0.457233,0.0671 0.831333,0.0236 0.831333,-0.0968 0,-0.39737 -1.033278,-1.26072 -1.713061,-1.43134 -0.992265,-0.24904 -0.809573,-0.62918 0.221934,-0.46179 0.810344,0.1315 0.915822,0.0707 1.176861,-0.67809 0.414157,-1.18805 0.639429,-1.01029 0.436299,0.34428 -0.09922,0.66163 -0.05702,1.37759 0.09747,1.65364 0.249247,0.44537 0.29601,0.42487 0.54909,-0.24077 0.405166,-1.06565 0.56633,-0.88908 0.386438,0.42337 -0.09705,0.70807 -0.0311,1.38763 0.171376,1.76597 l 0.329135,0.615 0.349731,-0.77379 c 0.346539,-0.76672 0.349396,-0.76225 0.313055,0.48989 -0.02529,0.8712 0.102051,1.4024 0.409996,1.71034 0.419174,0.41917 0.446672,0.41157 0.446672,-0.12358 0,-0.31363 0.125106,-0.64756 0.278013,-0.74206 0.181274,-0.11204 0.257045,0.23322 0.217757,0.99221 -0.06151,1.18822 0.133771,1.79421 0.578179,1.79421 0.136932,0 0.248968,-0.23812 0.248968,-0.52917 0,-0.29104 0.119062,-0.52916 0.264583,-0.52916 0.145521,0 0.264584,0.5212 0.264584,1.15823 0,1.48791 0.61654,2.11902 1.011715,1.03562 0.2529,-0.69334 0.270706,-0.66407 0.290313,0.47712 0.01479,0.86096 0.175316,1.35552 0.550055,1.69465 0.516255,0.46721 0.529167,0.46213 0.529167,-0.20796 0,-0.37777 0.119062,-0.76043 0.264583,-0.85037 0.160933,-0.0995 0.264583,0.28829 0.264583,0.9898 0,1.06958 0.340283,1.78832 0.846667,1.78832 0.116417,0 0.211667,-0.3175 0.211667,-0.70555 0,-0.99863 0.244877,-0.62985 0.474353,0.71437 0.238487,1.39701 0.848563,1.74892 0.848563,0.48948 0,-1.19745 0.470889,-0.64973 0.577632,0.67188 0.102101,1.26413 0.745285,1.64332 0.745285,0.43937 0,-1.24473 0.445719,-0.9716 0.651265,0.39908 0.1002,0.66818 0.143484,1.24711 0.09619,1.28651 -0.23476,0.19558 -2.334952,0.33061 -2.334952,0.15013 z m 64.492191,0.0662 c -1.07294,-0.11223 -1.1598,-0.35771 -0.72761,-2.05622 l 0.20198,-0.79375 0.0313,0.8793 c 0.0244,0.68585 0.13317,0.85997 0.49433,0.79147 0.33775,-0.0641 0.48503,-0.39143 0.54438,-1.21003 0.0859,-1.18514 0.5801,-1.58471 0.5801,-0.46904 0,0.47188 0.11015,0.61089 0.39687,0.50086 0.26944,-0.1034 0.39688,-0.52552 0.39688,-1.31462 0,-0.63927 0.11906,-1.16231 0.26458,-1.16231 0.14552,0 0.26458,0.29765 0.26458,0.66146 0,0.3638 0.0953,0.66145 0.21167,0.66145 0.50638,0 0.84667,-0.71874 0.84667,-1.78832 0,-0.70151 0.10365,-1.08926 0.26458,-0.9898 0.14552,0.0899 0.26854,0.48392 0.27339,0.87551 l 0.009,0.71199 0.52036,-0.62462 c 0.32112,-0.38546 0.52836,-1.04396 0.54125,-1.7198 0.0115,-0.60234 0.0805,-0.91657 0.15326,-0.69829 0.0728,0.21828 0.18387,0.55911 0.24682,0.7574 0.2495,0.78589 0.90195,-0.27521 0.90195,-1.46687 0,-0.71519 0.10338,-1.10995 0.26458,-1.01032 0.14553,0.0899 0.26459,0.4092 0.26459,0.70947 0,0.45529 0.0659,0.49125 0.39687,0.21657 0.25192,-0.20907 0.40473,-0.8249 0.41837,-1.68604 0.0205,-1.29503 0.0361,-1.32361 0.34397,-0.62908 0.46538,1.05001 0.952,0.43187 0.97894,-1.24353 0.0207,-1.28694 0.0335,-1.30903 0.34753,-0.59986 l 0.32603,0.73628 0.34234,-0.63967 c 0.22773,-0.42551 0.27886,-1.0154 0.15273,-1.76195 -0.13436,-0.79527 -0.10409,-1.06943 0.10389,-0.94089 0.16142,0.0998 0.29349,0.35296 0.29349,0.56265 0,0.20969 0.11104,0.38126 0.24676,0.38126 0.39571,0 0.58974,-0.95833 0.39942,-1.97281 -0.21706,-1.15699 0.0734,-1.22936 0.46184,-0.11507 0.26104,0.74882 0.36652,0.80959 1.17686,0.67809 1.0658,-0.17295 1.19903,0.21699 0.16252,0.47568 -1.58829,0.39639 -2.25378,1.69618 -0.79375,1.55029 l 0.8599,-0.0859 -0.79375,0.3844 c -0.43657,0.21142 -0.92889,0.38977 -1.09405,0.39633 -0.16517,0.007 -0.49533,0.30959 -0.73371,0.67339 -0.43139,0.65839 -0.42944,0.66146 0.41937,0.66146 1.03341,0 0.73406,0.38994 -0.5505,0.71711 -0.4953,0.12615 -1.07537,0.49266 -1.28904,0.81446 -0.37351,0.56254 -0.35604,0.5851 0.45314,0.5851 1.14068,0 0.808,0.41961 -0.49829,0.62849 -0.64899,0.10378 -1.16115,0.36559 -1.32911,0.67943 -0.24078,0.4499 -0.17101,0.52187 0.58696,0.6055 l 0.86023,0.0949 -0.79375,0.19791 c -1.86807,0.46577 -2.96637,1.49791 -1.59394,1.49791 0.39871,0 0.62886,0.1137 0.5356,0.26459 -0.0899,0.14552 -0.56471,0.26458 -1.05505,0.26458 -0.4952,0 -1.09864,0.20584 -1.35742,0.46302 -0.44448,0.44173 -0.43318,0.46687 0.24568,0.54674 1.09662,0.12902 0.84198,0.57774 -0.32785,0.57774 -0.63603,0 -1.22028,0.1797 -1.50542,0.46302 -0.44446,0.44164 -0.427,0.46685 0.37798,0.54593 1.33689,0.13134 0.98119,0.543 -0.5451,0.63087 -1.5015,0.0864 -1.84121,0.52376 -0.58032,0.74704 1.01336,0.17945 0.43114,0.58079 -0.74921,0.51645 -1.25549,-0.0684 -1.51475,-0.0219 -1.51475,0.27169 0,0.14552 0.23812,0.26458 0.52916,0.26458 0.29105,0 0.52917,0.11907 0.52917,0.26459 0,0.14552 -0.0893,0.24456 -0.19844,0.2201 -0.10914,-0.0245 -0.64492,-0.0912 -1.19062,-0.14826 z m -41.10831,-1.51438 c -0.0811,-0.21131 -0.0703,-0.50897 0.0239,-0.66146 0.11458,-0.1854 3.4971,-0.27725 10.2099,-0.27725 h 10.03855 v 0.66146 0.66145 h -10.06247 c -8.55286,0 -10.08459,-0.0576 -10.2099,-0.3842 z m 1.30662,-2.8198 c 0.11196,-0.42813 -0.0124,-0.80345 -0.40429,-1.22065 l -0.56595,-0.60243 h 0.69913 c 0.49355,0 0.81162,-0.21395 1.08169,-0.7276 l 0.38257,-0.72761 0.18373,0.72761 c 0.13629,0.53971 0.34714,0.7276 0.81651,0.7276 0.71483,0 0.85207,0.46162 0.21044,0.70784 -0.30374,0.11656 -0.38043,0.37156 -0.27311,0.90818 0.14044,0.70217 0.11274,0.72949 -0.47024,0.46387 -0.45282,-0.20632 -0.78123,-0.19567 -1.22081,0.0396 -0.5576,0.29843 -0.58958,0.27687 -0.43967,-0.29639 z m 7.75983,-0.2315 c 0.11701,-0.58507 0.0467,-0.83235 -0.2712,-0.95435 -0.64468,-0.24739 -0.51603,-0.63723 0.21028,-0.63723 0.4593,0 0.71126,-0.20494 0.8945,-0.7276 l 0.2551,-0.72761 0.28957,0.72761 c 0.21519,0.54069 0.4717,0.7276 0.99859,0.7276 0.70324,0 0.70492,0.005 0.20676,0.55497 -0.28077,0.31025 -0.46533,0.83667 -0.41853,1.19377 0.0784,0.59826 0.04,0.6189 -0.60427,0.32533 -0.52626,-0.23978 -0.76093,-0.24052 -0.99831,-0.003 -0.52303,0.52303 -0.72803,0.34832 -0.56249,-0.47935 z m 7.81135,0.15716 c 0.0468,-0.3571 -0.13777,-0.88352 -0.41854,-1.19377 -0.49815,-0.55045 -0.49647,-0.55497 0.20677,-0.55497 0.52689,0 0.7834,-0.18691 0.99859,-0.7276 l 0.28958,-0.72761 0.25509,0.72761 c 0.18324,0.52266 0.4352,0.7276 0.8945,0.7276 0.72631,0 0.85496,0.38984 0.21028,0.63723 -0.31794,0.122 -0.38821,0.36928 -0.2712,0.95435 0.16554,0.82767 -0.0395,1.00237 -0.56249,0.47935 -0.23737,-0.23738 -0.47205,-0.23664 -0.99831,0.003 -0.64432,0.29357 -0.68267,0.27293 -0.60427,-0.32533 z m -36.000623,-0.76851 c -0.160769,-0.16078 -0.292308,-0.38197 -0.292308,-0.49156 0,-0.26479 4.175702,-1.59075 8.0933,-2.56996 15.421411,-3.85458 31.985891,-3.43661 47.160721,1.19001 1.21279,0.36976 2.62864,0.84928 3.14634,1.06558 0.82462,0.34455 0.89347,0.4411 0.55552,0.77904 -0.33794,0.33795 -0.69507,0.28428 -2.88175,-0.43302 -13.09536,-4.29571 -28.29826,-5.28135 -42.315798,-2.74344 -2.816465,0.50993 -9.024323,2.08435 -11.386965,2.88794 -1.304148,0.44357 -1.865705,0.52876 -2.07906,0.31541 z m -0.639248,-3.66689 c -0.255414,-0.14294 -0.44681,-0.57122 -0.44681,-0.99981 0,-0.58963 0.141266,-0.77676 0.661458,-0.8762 0.363802,-0.0695 0.661459,-0.016 0.661459,0.11902 0,0.13501 0.327422,0.20779 0.727604,0.16175 0.650036,-0.0748 0.736233,-0.20268 0.808542,-1.1996 l 0.08094,-1.11587 -0.813213,0.28349 c -0.447267,0.15592 -1.108767,0.20931 -1.470001,0.11864 -0.618855,-0.15532 -0.656788,-0.26885 -0.656788,-1.96576 0,-1.52779 0.09029,-1.88459 0.595313,-2.35255 0.817164,-0.7572 2.680143,-1.23457 3.372332,-0.86413 0.801589,0.429 0.700777,1.53522 -0.159585,1.75116 -0.418736,0.1051 -0.765312,0.0511 -0.881848,-0.13751 -0.1384,-0.22393 -0.388963,-0.23576 -0.897643,-0.0424 -0.580271,0.22062 -0.705652,0.434 -0.705652,1.20088 0,1.0294 0.02204,1.0411 1.281244,0.67996 1.444457,-0.41426 1.893756,0.0579 1.893756,1.98995 0,1.35367 -0.100277,1.70423 -0.629781,2.20167 -0.819687,0.77006 -2.821655,1.38286 -3.421326,1.04727 z m 58.620991,0.087 c -0.18214,-0.11564 -0.60751,-1.02952 -0.94528,-2.03083 -0.72179,-2.13973 -1.2371,-2.53455 -1.2371,-0.94785 0,0.59421 0.11906,1.08038 0.26458,1.08038 0.14552,0 0.26458,0.29766 0.26458,0.66146 0,0.75064 -0.0327,0.75965 -1.38906,0.38297 -0.79349,-0.22037 -0.99219,-0.40239 -0.99219,-0.90896 0,-0.34837 0.11907,-0.70699 0.26459,-0.79692 0.1475,-0.0912 0.26458,-1.32046 0.26458,-2.77813 0,-1.45767 -0.11708,-2.68696 -0.26458,-2.77812 -0.28813,-0.17808 -0.37122,-1.45521 -0.0947,-1.45521 0.80351,0 3.98217,1.22246 4.36243,1.67772 0.70761,0.84717 0.68471,3.50398 -0.0354,4.1007 -0.47732,0.39557 -0.49836,0.54089 -0.21137,1.46019 0.17529,0.56151 0.47335,1.08026 0.66237,1.15279 0.18902,0.0725 0.34367,0.4168 0.34367,0.76503 0,0.65175 -0.58172,0.84367 -1.2572,0.41478 z m -0.9073,-7.22513 c -0.19197,-0.12172 -0.56459,-0.22314 -0.82804,-0.22537 -0.39151,-0.003 -0.46399,0.17525 -0.39687,0.97769 0.0667,0.79702 0.20658,1.0112 0.74358,1.13829 0.5979,0.14151 0.66957,0.0688 0.74591,-0.75637 0.0508,-0.54949 -0.0545,-1.00102 -0.26458,-1.13424 z m -52.339668,5.29013 c 0,-0.41638 0.119063,-0.75705 0.264584,-0.75705 0.159588,0 0.264583,-1.10243 0.264583,-2.77812 0,-1.67569 -0.104995,-2.77813 -0.264583,-2.77813 -0.145521,0 -0.264584,-0.33624 -0.264584,-0.74721 0,-0.71618 0.08367,-0.76537 2.013744,-1.18422 2.826539,-0.61338 3.01334,-0.47786 3.01334,2.18612 0,1.91029 -0.05615,2.13232 -0.659157,2.60665 -0.362537,0.28517 -1.076912,0.59686 -1.5875,0.69265 -0.761973,0.14295 -0.928343,0.29055 -0.928343,0.82363 0,0.35721 0.119062,0.64947 0.264583,0.64947 0.145521,0 0.264583,0.33713 0.264583,0.74917 0,0.67116 -0.123989,0.77755 -1.190625,1.02163 l -1.190625,0.27245 z m 3.285652,-4.35723 c 0.29255,-0.11226 0.418515,-0.50573 0.418515,-1.3073 0,-1.32415 -0.219591,-1.54712 -1.168421,-1.18637 -0.596136,0.22664 -0.683662,0.4132 -0.683662,1.4571 0,1.24319 0.310348,1.46759 1.433568,1.03657 z m 42.653256,4.46989 c -0.42018,-0.10792 -0.47181,-0.29987 -0.33978,-1.26312 0.14735,-1.07505 0.11725,-1.1432 -0.56219,-1.27309 -0.67119,-0.12831 -1.41276,0.36788 -0.84304,0.56407 0.14086,0.0485 0.2561,0.44086 0.2561,0.87189 0,0.76104 -0.0287,0.77851 -0.99218,0.60466 -0.54571,-0.0985 -1.08149,-0.22995 -1.19063,-0.29219 -0.26642,-0.15192 -0.25416,-1.33772 0.015,-1.44894 0.11738,-0.0485 0.49231,-1.45741 0.83319,-3.1309 0.80195,-3.93713 0.66901,-3.67922 1.76869,-3.4312 0.51193,0.11546 0.97085,0.2501 1.01981,0.29921 0.049,0.0491 0.40184,1.69662 0.78417,3.66115 0.38233,1.96454 0.80908,3.61157 0.94835,3.66007 0.13926,0.0485 0.2532,0.37593 0.2532,0.72761 0,0.52859 -0.1261,0.63409 -0.7276,0.60872 -0.40019,-0.0169 -0.95057,-0.088 -1.22308,-0.15794 z m -0.69921,-4.77231 c -0.005,-0.88415 -0.51234,-1.8437 -0.52467,-0.99219 -0.004,0.29104 -0.0795,0.79706 -0.16721,1.12448 -0.11728,0.43766 -0.0463,0.59531 0.2682,0.59531 0.29121,0 0.42644,-0.23223 0.42368,-0.7276 z m -38.195558,3.49691 c -0.359587,-0.26294 -0.429556,-0.89525 -0.429556,-3.88195 0,-4.17794 0.07773,-4.32373 2.454275,-4.60305 2.248781,-0.2643 2.309942,-0.16243 2.299422,3.82986 -0.0074,2.79961 -0.08465,3.43179 -0.476837,3.90104 -0.597025,0.71434 -3.203107,1.22515 -3.847304,0.7541 z m 2.745444,-4.27131 v -2.76486 l -0.859896,0.0829 -0.859896,0.0829 -0.07669,2.49369 c -0.04218,1.37154 -0.02344,2.63246 0.04164,2.80205 0.06968,0.18158 0.454718,0.25898 0.936582,0.18825 l 0.818259,-0.12009 z m 27.913544,4.11761 c -0.87313,-0.12665 -1.73633,-0.28699 -1.91823,-0.35631 -0.39458,-0.15035 -0.44175,-1.10112 -0.0661,-1.33325 0.14906,-0.0921 0.26459,-1.36977 0.26459,-2.92604 0,-1.66528 -0.10509,-2.76251 -0.26459,-2.76251 -0.14552,0 -0.26458,-0.31164 -0.26458,-0.69254 v -0.69254 l 2.05052,0.1877 c 2.66037,0.24352 3.24115,0.71762 3.24115,2.6458 0,0.74589 -0.14288,1.49904 -0.3175,1.67367 -0.24695,0.24694 -0.24695,0.38805 0,0.635 0.17462,0.17462 0.3175,0.94178 0.3175,1.70479 0,1.13364 -0.10751,1.46259 -0.58804,1.79916 -0.32342,0.22653 -0.65084,0.39736 -0.72761,0.37962 -0.0768,-0.0178 -0.85394,-0.13589 -1.72706,-0.26255 z m 1.45521,-2.32099 c 0,-0.94028 -0.0679,-1.03828 -0.79375,-1.1448 -0.76166,-0.11179 -0.79375,-0.0763 -0.79375,0.87661 0,0.72333 0.12577,1.02598 0.46302,1.11411 1.01814,0.26606 1.12448,0.18607 1.12448,-0.84592 z m 0,-3.5736 c 0,-0.88045 -0.33663,-1.21893 -1.21227,-1.21893 -0.26138,0 -0.37523,0.3211 -0.37523,1.05833 0,0.99954 0.0441,1.05833 0.79375,1.05833 0.72598,0 0.79375,-0.0766 0.79375,-0.89773 z m -26.458338,4.86648 c 0,-0.43656 0.119063,-0.79375 0.264588,-0.79375 0.15958,0 0.26458,-1.10243 0.26458,-2.77812 0,-1.67569 -0.105,-2.77813 -0.26458,-2.77813 -0.434432,0 -0.299261,-1.25299 0.15393,-1.4269 0.68595,-0.26322 3.80945,-0.18209 4.36138,0.1133 0.76796,0.411 0.73822,3.28741 -0.0426,4.11854 -0.50413,0.53661 -0.52328,0.676 -0.21144,1.5384 0.18861,0.52158 0.50551,0.94833 0.70422,0.94833 0.23805,0 0.33274,0.24821 0.27758,0.7276 -0.0703,0.61092 -0.20925,0.72761 -0.86644,0.72761 -0.71499,0 -0.83905,-0.14373 -1.4336,-1.66085 -0.35799,-0.91346 -0.77967,-1.61866 -0.93707,-1.56709 -0.39452,0.12924 -0.52411,1.50835 -0.17458,1.85788 0.50888,0.50888 0.3307,1.42846 -0.31005,1.60017 -1.35788,0.3639 -1.785939,0.21362 -1.785939,-0.62699 z m 3.704168,-5.55625 c 0,-0.7841 -0.10734,-1.05833 -0.41427,-1.05833 -0.76339,0 -1.43781,0.54216 -1.43781,1.15584 0,0.79174 0.194,0.96083 1.10243,0.96083 0.6982,0 0.74965,-0.0726 0.74965,-1.05834 z m 10.90679,5.40896 c -0.38118,-0.26699 -0.58804,-0.68583 -0.58804,-1.19062 0,-0.645 0.10875,-0.77875 0.63315,-0.77875 0.34823,0 0.70168,0.17859 0.78545,0.39687 0.089,0.232 0.48548,0.39688 0.95434,0.39688 0.73498,0 0.80206,-0.0749 0.80206,-0.89519 0,-0.92749 -0.40352,-1.20912 -1.74493,-1.21787 -0.98047,-0.006 -1.43007,-0.82039 -1.43007,-2.58913 0,-2.05825 0.4663,-2.48222 2.48253,-2.2572 1.54536,0.17247 2.27997,0.6804 2.27997,1.57644 0,0.513 -0.13746,0.62045 -0.79375,0.62045 -0.54347,0 -0.79375,-0.13043 -0.79375,-0.41364 0,-0.30729 -0.22109,-0.39232 -0.8599,-0.33073 -0.79055,0.0762 -0.85989,0.15758 -0.85989,1.00895 0,0.89166 0.0416,0.93095 1.12001,1.05833 1.72885,0.20421 2.18728,0.75506 2.18728,2.62825 0,1.89344 -0.50169,2.39884 -2.38125,2.39884 -0.66285,0 -1.46979,-0.18535 -1.79321,-0.41188 z m -6.14429,-0.51416 c 0,-0.36381 0.11906,-0.66146 0.26458,-0.66146 0.15959,0 0.26458,-1.10243 0.26458,-2.77813 0,-1.67569 -0.10499,-2.77812 -0.26458,-2.77812 -0.14552,0 -0.26458,0.11906 -0.26458,0.26458 0,0.14552 -0.35719,0.26458 -0.79375,0.26458 -0.74965,0 -0.79375,-0.0588 -0.79375,-1.05833 v -1.05833 h 2.77812 2.77813 v 1.05833 c 0,0.9525 -0.0662,1.05833 -0.66146,1.05833 -0.3638,0 -0.66146,-0.11906 -0.66146,-0.26458 0,-0.14552 -0.13487,-0.26458 -0.2997,-0.26458 -0.21421,0 -0.26427,0.98113 -0.1755,3.43958 l 0.1242,3.43958 h -1.14741 c -1.04753,0 -1.14742,-0.0576 -1.14742,-0.66145 z m 41.01003,-3.02711 c -0.2185,-0.12809 -1.82584,-0.72665 -3.57188,-1.33013 -6.17317,-2.13366 -12.91716,-3.64539 -20.90169,-4.68532 -3.02483,-0.39397 -5.52381,-0.48112 -13.62605,-0.47521 -8.77861,0.006 -10.42491,0.0756 -14.287494,0.60048 -7.896829,1.07309 -15.989089,2.99805 -21.43958,5.09998 -2.069693,0.79816 -2.637504,0.82454 -2.637504,0.12255 0,-0.63576 7.228751,-3.0308 13.49375,-4.47076 8.321263,-1.91257 15.387318,-2.65122 25.267708,-2.64136 13.81802,0.0138 25.86274,2.02442 36.57084,6.10475 2.19187,0.83522 2.41258,0.9801 2.17351,1.42681 -0.2951,0.55139 -0.45817,0.59024 -1.04161,0.24821 z m 8.99621,-1.95489 c -0.50932,-0.19175 -1.79278,-0.91348 -2.85213,-1.60384 -1.05936,-0.69036 -2.33928,-1.32225 -2.84428,-1.40419 -0.51814,-0.0841 -0.91816,-0.30383 -0.91816,-0.50437 0,-0.19546 0.35274,-1.24335 0.78386,-2.32865 0.43113,-1.0853 0.92617,-2.74553 1.10008,-3.68939 0.31019,-1.68342 0.30281,-1.73205 -0.38699,-2.55183 -0.79071,-0.93971 -0.83033,-1.09132 -0.39809,-1.52356 0.42714,-0.42714 1.23349,0.0489 1.59711,0.94297 0.15917,0.39134 0.3788,2.05064 0.48807,3.68734 0.24009,3.59601 0.8807,5.18808 2.419,6.01175 1.17838,0.63095 2.12431,0.39558 2.96888,-0.73874 0.47983,-0.64445 0.55619,-1.11669 0.55619,-3.43958 0,-2.5914 -0.038,-2.76879 -1.01256,-4.72053 -0.55691,-1.11538 -1.23849,-2.23242 -1.51463,-2.48232 -0.48005,-0.43444 -0.51503,-0.42093 -0.79781,0.30816 -0.16266,0.41939 -0.31452,1.52663 -0.33746,2.46055 l -0.0417,1.69802 0.85653,0.2269 c 1.01886,0.2699 1.44561,1.33206 0.79614,1.98153 -0.78112,0.78111 -2.14373,-0.52475 -2.59785,-2.48965 -0.1558,-0.67413 -0.0974,-1.81412 0.17985,-3.5117 l 0.41055,-2.51354 -1.44751,-2.15681 c -2.07899,-3.09772 -2.6679,-4.74548 -2.68064,-7.50048 -0.0112,-2.42722 0.32492,-3.4046 1.66887,-4.85227 1.49276,-1.60797 3.07259,-1.87828 5.66089,-0.96857 0.82806,0.29105 1.68011,0.52917 1.89344,0.52917 0.21333,0 0.46222,0.1203 0.55309,0.26732 0.0909,0.14703 -0.6082,2.45336 -1.55348,5.12516 -2.40502,6.79771 -2.37314,6.27942 -0.54946,8.93333 2.74057,3.98821 3.43463,6.25438 3.24142,10.5835 -0.0989,2.21663 -0.24615,2.98784 -0.77113,4.0397 -1.05788,2.11955 -2.61788,2.88195 -4.47009,2.18462 z m 0.21958,-22.07165 c 1.51574,-5.05323 1.16701,-7.47448 -1.07653,-7.47448 -1.68415,0 -2.68325,2.4018 -2.06725,4.96957 0.29041,1.21058 2.03227,4.29085 2.42644,4.29085 0.0999,0 0.4227,-0.80367 0.71734,-1.78594 z m -94.627545,21.7081 c 0.760966,-0.86717 1.274641,-2.15573 1.274641,-3.19746 0,-1.59868 -1.326337,-11.27283 -1.580753,-11.52983 -0.124731,-0.12599 -0.503643,-0.36711 -0.842026,-0.53581 -0.826161,-0.41188 -0.900841,-1.02892 -0.163666,-1.35227 0.843629,-0.37004 0.882161,-1.72036 0.211622,-7.41604 -0.598204,-5.08125 -0.886566,-6.08739 -1.994422,-6.95883 l -0.729201,-0.57359 h 3.190328 3.190329 l -0.778899,0.7789 c -0.664141,0.66414 -0.758734,0.92727 -0.642034,1.78594 0.07528,0.55387 0.561332,4.7575 1.080126,9.34141 0.518793,4.58391 1.012259,8.51297 1.09659,8.73125 0.173019,0.44784 2.422724,-16.3885 2.445326,-18.30033 0.01239,-1.04777 -0.09556,-1.31689 -0.713008,-1.77755 l -0.727604,-0.54286 3.012244,-0.008 3.012244,-0.008 -0.69714,0.54837 c -0.518197,0.40762 -0.69714,0.7884 -0.69714,1.4835 0,1.45686 2.033245,16.75832 2.256496,16.98157 0.06862,0.0686 0.124754,0.009 0.124754,-0.1329 0,-0.14172 0.47625,-3.72695 1.058334,-7.96719 1.296301,-9.44303 1.312736,-9.96468 0.330729,-10.49743 -0.680127,-0.36898 -0.522419,-0.39542 2.416931,-0.40533 l 3.144536,-0.0106 -0.694795,0.54653 c -0.429456,0.33781 -0.843401,1.07037 -1.083921,1.91823 -0.322114,1.13548 -3.584314,21.75427 -3.584314,22.65472 0,0.15429 0.248047,0.52857 0.551216,0.83173 0.303168,0.30318 0.511527,0.5846 0.46302,0.6254 -0.04851,0.0408 -1.278819,0.46507 -2.734027,0.94284 -1.455209,0.47777 -2.824427,0.93444 -3.042709,1.01482 -0.221836,0.0817 -0.08062,-0.2306 0.320201,-0.7081 0.394392,-0.46983 0.79092,-1.24787 0.881174,-1.72896 0.153742,-0.81951 -1.490643,-11.24164 -1.964847,-12.45322 -0.180392,-0.4609 -2.163496,12.49547 -2.151431,14.05611 0.0025,0.31917 0.265194,0.76292 0.583836,0.9861 0.672729,0.4712 0.675628,0.46708 -0.711641,1.01291 -0.582083,0.22902 -2.064049,0.84922 -3.293256,1.37821 -1.605776,0.69105 -2.117512,0.828 -1.817843,0.48651 z m 84.221515,-3.7303 c -1.16416,-0.38173 -2.13975,-0.70172 -2.16796,-0.71109 -0.0282,-0.009 -0.53121,-2.67977 -1.11777,-5.93421 -0.58656,-3.25444 -1.13886,-5.98956 -1.22734,-6.07804 -0.2421,-0.2421 -1.70464,1.49809 -1.70464,2.02826 0,0.25374 0.23813,0.61006 0.52917,0.79182 0.62211,0.38851 0.7002,1.26207 0.13229,1.48 -0.68226,0.2618 -1.17486,-0.11397 -1.47866,-1.12797 -0.39626,-1.32258 0.0294,-2.27779 2.20743,-4.95364 0.94815,-1.16487 1.99357,-2.64606 2.32316,-3.29153 1.09537,-2.14525 0.97234,-5.91808 -0.2419,-7.41761 -0.67173,-0.82955 -3.67587,-1.08061 -4.27631,-0.35738 -0.32427,0.39058 -0.3858,2.20602 -0.3858,11.3829 v 10.91819 l 0.66146,0.71583 c 0.58951,0.63798 0.6039,0.69909 0.13229,0.5619 -0.29104,-0.0847 -1.59113,-0.41679 -2.88909,-0.73805 -1.81575,-0.44942 -2.23155,-0.6316 -1.80323,-0.79005 0.98425,-0.36409 1.12044,-1.07767 1.12044,-5.87054 v -4.61122 l -0.79375,-0.99881 c -0.9339,-1.17516 -0.98356,-1.45521 -0.25803,-1.45521 0.85061,0 1.05178,-1.03744 1.05178,-5.42395 0,-4.36748 -0.18457,-5.30282 -1.12063,-5.67888 -0.86601,-0.34791 7.61311,-0.34195 8.86693,0.006 1.33062,0.36951 2.72767,1.63521 3.13646,2.84158 0.4728,1.39524 0.41365,4.44434 -0.11651,6.00605 -0.247,0.7276 -0.9369,1.96615 -1.53311,2.75234 l -1.08402,1.42942 0.28005,1.48099 c 2.34824,12.41833 2.16585,11.67886 3.14914,12.76725 0.50528,0.55928 0.87506,1.0062 0.82175,0.99316 -0.0533,-0.013 -1.04943,-0.33603 -2.2136,-0.71776 z m -67.148944,-2.76426 c 1.000396,-1.09408 1.339594,-2.15325 2.17445,-6.78993 l 0.829533,-4.60712 -0.669706,-0.69903 c -0.790874,-0.82549 -0.859869,-1.33152 -0.181548,-1.33152 0.55269,0 1.223551,-0.66822 1.460975,-1.45521 0.304492,-1.00931 1.48543,-7.67661 1.487933,-8.40052 0.0014,-0.40018 -0.235609,-0.96573 -0.526651,-1.25677 l -0.529166,-0.52917 h 3.042708 3.042708 l -0.529166,0.52917 c -0.291042,0.29104 -0.528876,0.85659 -0.528519,1.25677 7.94e-4,0.90997 2.800038,17.57295 3.175614,18.90351 0.151831,0.5379 0.566457,1.20642 0.92139,1.48561 l 0.645332,0.50762 -2.834513,0.53458 c -1.558983,0.29402 -2.871493,0.50132 -2.916695,0.46068 -0.0452,-0.0406 0.238562,-0.39464 0.630576,-0.78666 0.658135,-0.65813 0.700535,-0.82968 0.553281,-2.23854 -0.08771,-0.83919 -0.281051,-1.84556 -0.429638,-2.23637 -0.236167,-0.62117 -0.340225,-0.67308 -0.827,-0.41257 -0.459899,0.24613 -0.527461,0.45461 -0.388081,1.19757 0.214048,1.14097 -0.216069,1.9653 -1.025456,1.9653 -0.766403,0 -1.017251,-0.56938 -0.662236,-1.50314 0.339071,-0.89182 0.146169,-1.40728 -0.526648,-1.40728 -0.587552,0 -0.964884,1.01511 -1.246882,3.35439 -0.150059,1.24479 -0.10189,1.42864 0.52703,2.0115 l 0.692182,0.64149 -2.708515,0.7025 c -3.276064,0.84971 -3.338138,0.85212 -2.653292,0.10314 z m 7.718022,-9.55712 0.589441,-0.62743 -0.56302,-3.93663 c -0.30966,-2.16515 -0.649721,-4.16181 -0.755687,-4.43703 -0.172992,-0.44929 -1.62002,6.83193 -1.62002,8.15168 0,0.48236 0.974961,1.45257 1.475235,1.46804 0.156533,0.005 0.549857,-0.27354 0.874051,-0.61863 z m 44.614262,8.40896 c -0.87313,-0.18298 -3.37344,-0.60218 -5.55625,-0.93157 -2.18282,-0.32938 -4.0211,-0.63889 -4.08508,-0.68779 -0.064,-0.0489 0.14438,-0.27153 0.46302,-0.49471 0.5581,-0.39091 0.57935,-0.57361 0.57935,-4.98176 v -4.57596 l -0.8599,-0.89914 c -0.82052,-0.85797 -0.83351,-0.90289 -0.2838,-0.98117 1.07441,-0.15298 1.16026,-0.56772 1.08409,-5.23711 -0.0727,-4.45526 -0.0727,-4.45542 -0.73414,-4.78975 -0.55313,-0.27959 0.27647,-0.33499 5.06512,-0.33825 l 5.72659,-0.004 -0.63157,1.98882 c -0.34736,1.09385 -0.70908,2.64832 -0.80381,3.45437 -0.15844,1.34808 -0.12678,1.47745 0.39508,1.61392 0.37987,0.0993 0.56734,0.35673 0.56734,0.77896 0,0.49385 -0.14143,0.6306 -0.65215,0.6306 -0.79608,0 -0.98413,-0.33663 -1.72258,-3.08355 -0.70332,-2.61624 -1.34416,-3.3422 -2.97984,-3.37567 l -1.12772,-0.0231 -0.0731,4.05045 -0.0731,4.05044 1.12527,-0.0817 c 0.89103,-0.0647 1.19459,-0.21939 1.45828,-0.74316 0.28998,-0.57597 0.33352,-0.32345 0.33692,1.95391 l 0.004,2.61537 -0.52524,-0.66774 c -0.33372,-0.42426 -0.86433,-0.70732 -1.45521,-0.7763 l -0.92997,-0.10857 0.004,3.98177 c 0.002,2.18997 0.0939,4.12315 0.20382,4.29594 0.34896,0.5488 1.59152,0.88339 2.29183,0.61713 0.87919,-0.33427 1.35121,-1.14265 1.85697,-3.18026 0.63972,-2.57732 0.92927,-3.16349 1.65234,-3.34496 0.84545,-0.2122 1.68383,0.52045 1.17632,1.02796 -0.18294,0.18294 -0.4755,0.33442 -0.65012,0.33662 -0.50537,0.006 -0.32409,3.6666 0.30072,6.07189 0.30105,1.15893 0.52323,2.12143 0.49374,2.13888 -0.0295,0.0175 -0.768,-0.11797 -1.64113,-0.30095 z m -36.393735,-1.78401 c 0.356368,-0.21116 0.734952,-0.60518 0.841301,-0.87561 0.106347,-0.27043 0.201729,-2.3787 0.211955,-4.68502 l 0.0186,-4.19333 -0.79375,-0.74147 c -0.94416,-0.88198 -1.001284,-1.25609 -0.209283,-1.37066 0.811263,-0.11736 0.946018,-0.8159 0.976659,-5.06288 0.02766,-3.83433 -0.132934,-4.54585 -1.115401,-4.9417 -0.386363,-0.15567 0.386998,-0.23578 2.3324,-0.24161 2.301194,-0.007 2.799654,0.0541 2.381254,0.29134 -0.29105,0.16504 -0.61665,0.42931 -0.72356,0.58727 -0.10691,0.15796 -0.19445,4.27579 -0.19454,9.15074 -1.6e-4,9.97328 0.0384,10.219 1.59061,10.14067 1.47608,-0.0745 1.9748,-0.91379 2.31321,-3.89291 0.20619,-1.81518 0.44855,-2.77252 0.84161,-3.32454 0.88124,-1.23759 2.12579,-1.39084 2.12579,-0.26177 0,0.45438 -0.2697,0.63101 -0.84141,0.55104 -0.099,-0.0138 -0.32092,0.40197 -0.49322,0.92403 -0.39879,1.20836 -0.16358,3.01891 0.70502,5.42685 0.3691,1.02324 0.63199,1.88991 0.5842,1.92595 -0.0478,0.036 -2.11272,0.20706 -4.58875,0.38005 -2.47603,0.173 -4.976344,0.3782 -5.556253,0.45601 -1.020437,0.13691 -1.033521,0.1291 -0.40644,-0.24245 z m 15.044875,-0.98074 c 0.5527,-0.51492 0.57906,-0.74839 0.57906,-5.12895 v -4.58947 l -0.66146,-0.4334 c -0.81615,-0.53477 -0.82934,-0.75124 -0.0661,-1.08607 0.57606,-0.25273 0.59767,-0.39496 0.66802,-4.39754 0.0791,-4.5009 0.004,-4.72999 -1.38525,-4.20196 -0.93619,0.35594 -1.47754,1.61886 -1.7185,4.00909 -0.22926,2.27414 -0.75601,3.22187 -1.71415,3.08411 -0.81443,-0.1171 -0.83618,-0.90696 -0.0305,-1.10916 0.5409,-0.13576 0.67469,-0.33128 0.67469,-0.98601 0,-1.03613 -0.64835,-3.55269 -1.31746,-5.11364 l -0.51582,-1.20336 h 7.66352 c 4.21493,0 7.66352,0.0496 7.66352,0.11034 0,0.0607 -0.41672,1.3557 -0.92605,2.87779 -1.09292,3.26615 -1.17645,4.45398 -0.35171,5.00158 0.64552,0.42861 0.46738,1.00612 -0.31036,1.00612 -0.80397,0 -1.32167,-1.0281 -1.32862,-2.63856 -0.004,-0.80436 -0.11463,-1.92951 -0.24702,-2.50034 -0.452,-1.94887 -1.93778,-3.21551 -2.7818,-2.3715 -0.34757,0.34757 -0.40445,1.71557 -0.40445,9.72769 0,9.59786 0.0345,9.93317 1.05833,10.2991 0.21829,0.078 -0.84596,0.15124 -2.36499,0.16272 l -2.76187,0.0209 z M 99.649646,98.793083 c -0.507506,-0.507514 -0.371795,-0.963106 0.410104,-1.376776 0.40018,-0.21171 1.916,-1.58399 3.36847,-3.0495 1.92569,-1.94297 2.81768,-2.66457 3.29374,-2.66457 0.55499,0 0.169,0.48944 -2.57472,3.26474 -1.77518,1.79561 -3.22759,3.462492 -3.22759,3.704172 0,0.511024 -0.80375,0.588184 -1.270004,0.121934 z m 22.171844,-0.344594 c -0.13845,-0.364142 -1.59925,-2.031022 -3.24623,-3.704162 -2.54775,-2.58823 -2.89789,-3.04209 -2.34694,-3.04209 0.46691,0 1.46666,0.80109 3.58352,2.87141 1.61476,1.57928 3.14429,2.94476 3.39895,3.03441 0.57348,0.20188 0.58842,0.545572 0.0473,1.086746 -0.60393,0.60393 -1.14881,0.5105 -1.43655,-0.246314 z M 59.380062,95.935577 c 0,-0.52457 0.176389,-0.52917 20.276307,-0.52917 h 20.276307 l -0.672727,0.52917 c -0.658979,0.51835 -1.073357,0.52916 -20.276307,0.52916 -19.427191,0 -19.60358,-0.005 -19.60358,-0.52916 z m 64.256918,0.009 c -0.62221,-0.51835 -0.54604,-0.5204 19.68215,-0.52917 20.1333,-0.009 20.30676,-0.004 20.30676,0.52036 0,0.52443 -0.17639,0.52917 -19.68214,0.52917 -19.18305,0 -19.69799,-0.0132 -20.30677,-0.52036 z m -29.845744,-2.9013 c -0.150418,-0.37366 -0.452443,-1.54519 -0.671163,-2.60341 -0.21872,-1.05821 -0.639307,-2.39766 -0.934635,-2.97656 l -0.536964,-1.05253 0.865274,-0.002 c 0.475899,-0.001 1.868009,-0.242235 3.093575,-0.536031 5.892787,-1.412634 13.379427,-1.993746 20.305567,-1.576115 4.82443,0.290903 6.09668,0.460603 10.8752,1.450604 1.76113,0.364865 3.44776,0.663392 3.74805,0.663392 0.65262,0 0.66178,0.067 0.14573,1.06492 -0.22016,0.42573 -0.64824,1.8181 -0.95131,3.09417 -0.83364,3.51008 -0.5146,3.31686 -3.9992,2.42207 -6.18832,-1.58904 -8.66911,-1.92965 -14.09609,-1.93538 -5.42144,-0.006 -6.94992,0.19339 -13.891106,1.80944 l -3.679441,0.85665 z m 4.548722,-2.5144 c 0.454673,-0.0996 0.726086,-0.33123 0.723554,-0.61741 -0.0026,-0.29548 -0.07303,-0.35001 -0.198438,-0.1537 -0.106913,0.16736 -0.432512,0.34595 -0.723553,0.39687 -0.39029,0.0683 -0.552638,-0.0734 -0.618596,-0.53996 -0.0689,-0.48737 0.007,-0.59555 0.330729,-0.47132 0.271441,0.10416 0.420158,0.0174 0.420158,-0.24517 0,-0.286 -0.156776,-0.35665 -0.529166,-0.23845 -0.412687,0.13098 -0.529167,0.0476 -0.529167,-0.37905 0,-0.41044 0.169032,-0.547 0.677074,-0.547 0.384006,0 0.606293,-0.11452 0.513551,-0.26458 -0.208216,-0.3369 -0.704966,-0.33554 -1.599033,0.004 -0.517501,0.19675 -0.635331,0.35659 -0.438862,0.59531 0.14772,0.17949 0.351507,0.88345 0.452864,1.56436 0.110389,0.7416 0.30598,1.20136 0.487783,1.14658 0.166923,-0.0503 0.63092,-0.16318 1.031102,-0.25087 z m 27.656232,-0.0321 c 0.76469,-0.53561 0.74346,-1.01497 -0.0734,-1.65752 -0.85984,-0.67636 -0.83522,-0.78832 0.19844,-0.90239 l 0.85989,-0.0949 -0.76877,-0.22547 c -0.61137,-0.1793 -0.8416,-0.12586 -1.12447,0.261 -0.50174,0.68616 -0.44826,0.8924 0.30575,1.17907 0.72363,0.27512 0.73467,0.29507 0.50085,0.9044 -0.19094,0.49758 -1.06167,0.55865 -1.25167,0.0878 -0.0832,-0.20625 -0.14131,-0.16475 -0.15434,0.11024 -0.018,0.38029 0.27392,0.653 0.78014,0.72877 0.0768,0.0115 0.40418,-0.16446 0.7276,-0.39099 z m -3.77758,-1.96867 c 0,-0.87189 -0.0893,-1.58591 -0.19844,-1.58673 -0.10914,-8.1e-4 -0.32453,-0.002 -0.47864,-0.002 -0.15671,0 -0.19016,0.14569 -0.0759,0.33057 0.25613,0.41443 0.12404,1.81728 -0.20935,2.22339 -0.16382,0.19954 -0.13222,0.35242 0.0914,0.44213 0.7584,0.30431 0.87094,0.1224 0.87094,-1.40788 z m -19.44968,0.92871 c 0.46405,-0.55915 0.14096,-1.17336 -0.78746,-1.49701 -0.9949,-0.34683 -1.10779,-1.14096 -0.13578,-0.95515 0.72726,0.13903 0.9074,-0.17835 0.24541,-0.43237 -0.60462,-0.232022 -1.43604,0.30039 -1.43604,0.91959 0,0.35947 0.30193,0.65951 0.92605,0.92029 0.50932,0.2128 0.92604,0.50812 0.92604,0.65626 0,0.41912 -0.79507,0.62183 -1.12904,0.28786 -0.42535,-0.42535 -0.73389,-0.37126 -0.55415,0.0972 0.19673,0.51266 1.5204,0.51495 1.94497,0.003 z m 3.49154,-1.48716 c -0.11217,-1.55083 -0.0942,-1.608865 0.44614,-1.43738 0.34548,0.10965 0.56303,0.0642 0.56303,-0.11754 0,-0.440575 -2.70562,-0.229984 -2.85477,0.2222 -0.085,0.25771 0.0369,0.30927 0.43341,0.18341 0.44151,-0.14013 0.58604,-0.0381 0.72389,0.51113 0.0947,0.37743 0.10167,1.03903 0.0154,1.47024 -0.12704,0.63521 -0.067,0.78402 0.31648,0.78402 0.41577,0 0.45908,-0.19642 0.3564,-1.61608 z m 12.61779,0.71209 c 0.42613,-0.8917 0.17658,-1.91598 -0.57884,-2.375897 -0.99774,-0.607447 -1.91691,1.486267 -1.22229,2.784167 0.40114,0.74954 1.35069,0.5343 1.80113,-0.40827 z m -1.44108,-0.003 c -0.23258,-0.92666 0.0725,-2.00317 0.56763,-2.00317 0.31891,0 0.38898,0.26594 0.32568,1.23609 -0.0892,1.36753 -0.62676,1.82912 -0.89331,0.76708 z m -8.29561,0.30532 c -0.0327,-0.31636 -0.39563,-0.25509 -0.50932,0.086 -0.0582,0.17463 0.037,0.26988 0.21167,0.21167 0.17462,-0.0582 0.30857,-0.19216 0.29765,-0.29766 z m 5.80099,-0.0228 c 0,-0.24816 -0.2263,-0.31962 -0.7276,-0.22975 l -0.72761,0.13043 0.72761,-0.77691 c 0.83485,-0.89143 0.92681,-1.53622 0.27141,-1.903003 -0.50707,-0.283771 -1.39589,0.05707 -1.39589,0.535293 0,0.19248 0.12748,0.18186 0.38528,-0.0321 0.38767,-0.321736 0.93763,-0.17493 0.93763,0.25028 0,0.12577 -0.29765,0.58241 -0.66145,1.01476 -0.89295,1.06121 -0.83314,1.37117 0.26458,1.37117 0.60483,0 0.92604,-0.12493 0.92604,-0.36018 z m -25.510461,3.31913 c -0.842735,-0.19736 -0.938631,-0.40826 -1.46575,-3.22349 -0.177104,-0.94588 -0.658743,-2.51226 -1.070311,-3.480841 l -0.748299,-1.761049 0.835768,0.239695 c 1.895893,0.543735 6.51733,-0.03323 8.806908,-1.099492 l 1.292772,-0.602051 -0.926041,-0.157523 c -0.729716,-0.124127 -0.823291,-0.198816 -0.441381,-0.352297 0.593379,-0.238467 2.143482,-0.256562 2.37235,-0.02769 0.09189,0.09189 0.05334,0.379605 -0.08568,0.639358 -0.26139,0.488409 -1.526511,0.971981 -4.491128,1.716663 -1.764948,0.443337 -2.645833,0.985266 -2.645833,1.627744 0,0.200565 0.298506,0.953733 0.663347,1.673713 0.650045,1.2828 1.544723,4.49098 1.31616,4.71955 -0.209939,0.20994 -2.625866,0.27203 -3.412887,0.0877 z m 40.915341,-0.006 c -0.47788,-0.30326 0.0318,-2.62056 1.0395,-4.72599 1.16121,-2.426238 0.95751,-2.652377 -3.42337,-3.800527 -2.28803,-0.599651 -3.45044,-1.265897 -3.12561,-1.791474 0.21235,-0.343593 1.70676,-0.412248 2.45223,-0.112658 0.37991,0.152678 0.28452,0.226273 -0.44138,0.340514 l -0.92604,0.145739 1.10861,0.58281 c 1.52803,0.8033 5.59528,1.476386 7.82108,1.294301 0.98226,-0.08035 1.78594,-0.108312 1.78594,-0.06212 0,0.04619 -0.30032,0.763044 -0.66738,1.593018 -0.36705,0.829977 -0.86841,2.572537 -1.11413,3.872357 -0.4451,2.35451 -0.45025,2.36427 -1.38315,2.62344 -1.13122,0.31426 -2.6637,0.33416 -3.1263,0.0406 z M 91.72533,85.550676 c 0.06061,-0.181901 1.409983,-0.708561 2.99861,-1.170355 1.588627,-0.461795 3.095157,-0.96781 3.347844,-1.124479 0.654704,-0.405925 0.731195,-0.365844 0.731195,0.383154 0,0.792964 -0.457899,1.006817 -3.704167,1.72997 -2.667375,0.594195 -3.526337,0.640463 -3.373482,0.18171 z m 36.37019,-0.09784 c -3.18678,-0.6839 -3.75041,-0.941118 -3.84397,-1.754241 -0.0957,-0.831604 0.006,-0.875023 0.82063,-0.349147 0.32231,0.208151 1.56819,0.627383 2.76863,0.931625 2.41219,0.611353 3.50592,1.04131 3.50592,1.378221 0,0.314946 -1.1669,0.240846 -3.25121,-0.206458 z m -26.3376,-6.333022 c -4.992127,-4.847101 -5.348671,-5.366209 -4.32317,-6.294275 0.973026,-0.880576 1.472734,-0.552215 5.47402,3.597014 2.14007,2.219193 4.48478,4.719505 5.21046,5.55625 l 1.31944,1.521354 h -1.06287 c -0.58458,0 -1.23117,0.06458 -1.43687,0.143516 -0.23579,0.09048 -2.15039,-1.581274 -5.18101,-4.523859 z m 13.09392,4.402728 -1.28135,-0.154676 1.91644,-2.116667 c 4.19085,-4.628709 8.48713,-8.863542 8.99216,-8.863542 0.59358,0 1.57597,0.884132 1.57597,1.418345 0,0.344021 -9.34979,9.802417 -9.73574,9.848832 -0.10238,0.01231 -0.76274,-0.04722 -1.46748,-0.132292 z"
       id="path896"
       inkscape:connector-curvature="0" />
  </g>
</svg>
